<?xml version="1.0" standalone="no"?>
<!DOCTYPE svg PUBLIC "-//W3C//DTD SVG 20010904//EN"
 "http://www.w3.org/TR/2001/REC-SVG-20010904/DTD/svg10.dtd">
<svg version="1.0" xmlns="http://www.w3.org/2000/svg"
 width="1104.000000pt" height="636.000000pt" viewBox="0 0 1104.000000 636.000000"
 preserveAspectRatio="xMidYMid meet">

<g transform="translate(0.000000,636.000000) scale(0.100000,-0.100000)"
fill="#000000" stroke="none">
<path d="M7510 5607 c0 -9 -30 -23 -77 -36 -180 -52 -254 -111 -326 -259 -37
-76 -40 -89 -41 -170 -1 -106 21 -173 88 -266 118 -166 253 -226 479 -213 110
6 163 22 239 72 63 41 151 145 190 225 60 121 48 279 -31 401 -38 60 -123 138
-197 181 -96 56 -324 102 -324 65z m85 -7 c3 -5 18 -10 32 -10 52 0 17 -7 -62
-13 -74 -6 -78 -4 -35 9 13 5 13 6 0 14 -11 7 -5 10 22 10 20 0 40 -4 43 -10z
m213 -74 c48 -24 110 -64 138 -89 139 -125 163 -320 64 -519 -65 -131 -150
-194 -299 -222 -278 -53 -468 28 -570 242 -35 75 -36 80 -36 192 0 122 9 153
75 260 12 19 15 27 7 18 -8 -10 -18 -18 -22 -18 -5 0 0 9 10 20 10 11 21 18
25 15 4 -2 22 12 41 31 45 48 94 72 182 89 90 18 122 21 220 23 73 2 82 0 165
-42z m-663 -176 c-9 -16 -18 -30 -21 -30 -2 0 2 14 11 30 9 17 18 30 21 30 2
0 -2 -13 -11 -30z m-45 -97 c-11 -17 -11 -17 -6 0 3 10 6 24 7 30 0 9 2 9 5 0
3 -7 0 -20 -6 -30z m-13 -75 c-2 -13 -4 -5 -4 17 -1 22 1 32 4 23 2 -10 2 -28
0 -40z m988 -149 c-8 -19 -12 -25 -9 -14 3 11 9 40 13 65 5 39 6 41 9 14 2
-17 -4 -47 -13 -65z m-988 19 c-3 -7 -5 -2 -5 12 0 14 2 19 5 13 2 -7 2 -19 0
-25z m959 -95 c-8 -15 -15 -25 -16 -21 0 12 23 58 27 54 3 -2 -2 -17 -11 -33z"/>
<path d="M7358 5389 l-68 -40 0 -209 0 -209 69 -41 c38 -22 72 -40 75 -40 3 0
6 18 6 39 0 36 -4 42 -40 62 l-40 23 0 168 0 168 40 20 c37 19 40 24 40 60 0
22 -3 40 -7 40 -5 0 -38 -18 -75 -41z"/>
<path d="M7760 5391 c0 -36 4 -42 40 -62 l40 -23 0 -165 0 -166 -40 -23 c-36
-20 -40 -26 -40 -62 0 -22 2 -40 4 -40 2 0 36 18 75 41 l71 41 0 208 0 209
-69 41 c-38 22 -72 40 -75 40 -3 0 -6 -18 -6 -39z"/>
<path d="M7550 5308 c-47 -30 -50 -35 -50 -95 0 -51 -1 -53 -39 -72 -45 -23
-51 -36 -51 -100 0 -46 1 -48 46 -69 l46 -23 41 23 42 23 5 120 c4 66 7 94 8
62 2 -56 3 -57 25 -46 l22 11 -22 -21 c-18 -17 -23 -33 -23 -74 0 -53 0 -53
45 -75 l45 -22 2 58 1 57 6 -57 6 -57 40 22 c39 22 40 24 40 77 0 52 -2 55
-40 82 -22 15 -48 26 -59 24 -14 -4 -16 -2 -7 7 12 12 15 95 3 113 -9 14 -74
54 -87 54 -5 0 -26 -10 -45 -22z"/>
<path d="M5635 5594 c-63 -14 -114 -29 -147 -46 -31 -15 -36 -15 -32 -3 4 9 0
15 -9 15 -25 0 -191 -192 -222 -257 -42 -89 -58 -181 -45 -256 29 -159 152
-295 335 -370 115 -47 219 -47 367 -1 13 4 21 -4 32 -30 8 -19 64 -129 124
-243 60 -114 187 -359 281 -545 95 -185 179 -339 188 -342 12 -5 0 -15 -43
-35 -57 -27 -128 -92 -154 -141 -82 -154 -80 -376 6 -505 58 -88 150 -161 233
-186 23 -7 40 -17 37 -23 -2 -6 -56 -127 -120 -269 -64 -143 -113 -264 -109
-270 3 -5 1 -7 -4 -4 -6 4 -20 -15 -32 -43 -12 -27 -66 -145 -121 -261 -55
-116 -100 -215 -100 -219 0 -4 6 -10 14 -13 10 -4 33 36 79 136 36 78 95 207
132 287 168 364 284 632 278 647 -5 14 0 15 43 7 93 -17 183 -10 269 20 109
38 152 64 221 139 82 89 126 178 132 271 8 133 -27 230 -129 353 -81 99 -169
143 -315 158 -35 4 -67 11 -69 16 -6 9 -55 -5 -159 -45 -37 -14 -70 -26 -72
-26 -2 0 -22 37 -45 83 -23 45 -106 204 -184 352 -78 149 -197 377 -264 507
l-122 237 34 16 c55 26 174 131 201 178 14 23 31 69 39 102 14 65 16 232 2
280 -7 26 -9 27 -17 10 -6 -15 -7 -12 -4 11 10 63 -104 199 -213 253 -97 50
-230 72 -316 55z m219 -43 c33 -12 75 -30 94 -41 19 -12 36 -19 38 -17 3 2
-16 15 -40 28 -25 13 -43 25 -41 27 7 7 95 -48 92 -57 -1 -5 17 -23 40 -40 23
-17 55 -53 71 -81 16 -27 31 -47 34 -44 3 3 9 0 14 -7 5 -8 3 -10 -6 -4 -10 6
-12 4 -7 -8 3 -8 9 -33 13 -54 6 -29 9 -33 14 -19 4 11 6 -27 5 -85 -3 -109
-12 -145 -61 -240 -38 -71 -39 -73 -24 -64 14 9 80 143 80 164 0 8 3 12 6 8
18 -18 -71 -191 -94 -184 -5 1 -21 -13 -37 -31 -33 -39 -161 -106 -242 -127
-177 -46 -350 11 -496 164 -79 82 -107 148 -107 250 0 183 87 336 232 406 37
18 64 36 60 40 -4 5 -1 5 5 1 16 -9 127 25 112 34 -6 4 34 6 88 5 70 -2 115
-8 157 -24z m-267 13 c-3 -3 -12 -4 -19 -1 -8 3 -5 6 6 6 11 1 17 -2 13 -5z
m-47 -14 c-8 -5 -19 -10 -25 -10 -5 0 -3 5 5 10 8 5 20 10 25 10 6 0 3 -5 -5
-10z m-100 -22 c0 -7 -12 -19 -27 -25 l-26 -13 23 25 c27 29 30 30 30 13z
m1277 -1974 c-3 -3 -12 -4 -19 -1 -8 3 -5 6 6 6 11 1 17 -2 13 -5z m-40 -10
c-3 -3 -12 -4 -19 -1 -8 3 -5 6 6 6 11 1 17 -2 13 -5z m252 -24 c47 -16 88
-27 93 -24 5 3 7 0 6 -7 -2 -6 3 -14 11 -17 9 -3 11 0 6 9 -5 8 -4 11 1 6 5
-5 9 -12 9 -15 0 -4 21 -26 46 -50 74 -68 149 -248 149 -358 0 -70 -32 -154
-81 -210 -22 -25 -37 -49 -34 -54 5 -9 -61 -72 -94 -90 -37 -19 -23 -3 30 35
28 20 48 39 45 42 -3 4 -19 -5 -34 -18 -104 -95 -167 -121 -308 -127 -96 -4
-120 -2 -177 17 -36 12 -93 40 -127 61 -33 22 -62 39 -64 37 -7 -4 -57 46 -78
78 -11 17 1 8 26 -20 l47 -50 -41 55 c-22 30 -45 70 -51 89 -6 18 -14 29 -18
23 -8 -13 -15 70 -15 193 0 88 3 107 27 160 34 73 104 148 172 182 63 33 255
82 320 82 30 1 83 -11 134 -29z m-619 -645 c0 -5 -5 -3 -10 5 -5 8 -10 20 -10
25 0 6 5 3 10 -5 5 -8 10 -19 10 -25z m156 -166 c19 -22 19 -22 -3 -10 -24 12
-39 31 -25 31 5 0 17 -10 28 -21z m64 -34 c14 -8 21 -14 15 -14 -5 0 -21 6
-35 14 -14 8 -20 14 -15 14 6 0 21 -6 35 -14z"/>
<path d="M5600 5300 c-65 -114 -90 -150 -105 -150 -31 0 -82 -36 -100 -69 -46
-89 17 -201 113 -201 42 0 99 26 113 51 9 17 24 19 184 19 96 0 175 3 175 8 0
12 -277 486 -286 489 -5 1 -47 -65 -94 -147z m144 -43 c25 -43 46 -81 46 -85
0 -3 -22 15 -49 42 -27 27 -51 43 -55 38 -3 -6 -25 -25 -48 -44 l-43 -33 21
35 c12 19 34 57 49 83 15 26 29 47 30 45 2 -2 24 -38 49 -81z m1 -127 c54 -55
53 -60 -6 -29 -39 19 -43 19 -80 5 -28 -12 -39 -13 -39 -4 0 12 59 78 70 78 3
0 28 -22 55 -50z m-200 -90 l29 -30 -32 -32 c-33 -34 -58 -32 -27 2 18 20 18
20 -28 20 -26 0 -47 5 -47 10 0 6 20 10 45 10 49 0 53 4 28 32 -28 31 2 20 32
-12z m222 -19 c14 -8 0 -10 -54 -11 -55 0 -73 3 -73 13 0 8 10 19 23 24 22 10
57 2 104 -26z"/>
<path d="M6590 3413 c-62 -22 -142 -105 -163 -167 -50 -148 12 -300 152 -368
62 -31 166 -31 232 -1 l47 21 53 -54 c29 -30 61 -54 69 -54 20 0 60 41 60 61
0 8 -24 38 -53 67 l-54 53 26 52 c67 135 7 307 -132 379 -56 28 -174 34 -237
11z m217 -19 c47 -20 110 -80 136 -128 30 -56 31 -183 2 -241 -25 -50 -80
-105 -130 -130 -58 -29 -185 -28 -241 2 -109 58 -169 184 -143 301 36 169 216
262 376 196z"/>
<path d="M6642 3351 c-52 -14 -109 -57 -138 -107 -75 -128 2 -297 147 -322
159 -28 286 99 257 258 -22 118 -148 200 -266 171z m133 -30 c70 -31 125 -113
125 -186 0 -66 -51 -150 -110 -180 -102 -53 -233 -6 -281 100 -75 164 102 341
266 266z"/>
<path d="M6650 3105 l0 -125 40 0 40 0 0 125 0 125 -40 0 -40 0 0 -125z m60 5
l0 -110 -25 0 -25 0 0 110 0 110 25 0 25 0 0 -110z"/>
<path d="M6550 3103 c0 -42 5 -54 30 -78 36 -35 42 -24 38 61 -3 59 -3 59 -35
62 l-33 3 0 -48z m50 -20 c0 -55 0 -56 -20 -38 -13 12 -20 31 -20 57 0 31 3
38 20 38 18 0 20 -7 20 -57z"/>
<path d="M6770 3066 c0 -31 4 -56 9 -56 18 0 62 63 59 84 -2 16 -11 22 -35 24
l-33 3 0 -55z m50 21 c0 -13 -9 -32 -20 -42 -20 -18 -20 -17 -20 23 0 35 3 42
20 42 14 0 20 -7 20 -23z"/>
<path d="M3905 5560 c-169 -10 -214 -27 -318 -114 -69 -59 -114 -132 -157
-256 -33 -94 -32 -275 2 -254 8 5 9 2 5 -10 -9 -22 33 -105 78 -155 84 -93
322 -162 505 -147 l75 6 102 -262 c55 -145 145 -389 198 -543 53 -154 102
-284 107 -290 8 -7 9 -4 4 10 -46 124 -57 157 -53 162 3 2 13 -20 23 -49 24
-75 44 -121 50 -116 2 3 -47 138 -111 301 -100 258 -285 775 -285 797 0 4 19
16 42 26 63 28 175 138 208 204 70 139 79 294 24 410 -36 75 -109 155 -183
200 -28 18 -51 38 -51 46 0 14 -14 19 -87 28 -23 3 -47 7 -55 9 -7 2 -62 1
-123 -3z m74 -14 c-2 -2 -49 -5 -104 -8 -55 -3 -84 -2 -65 2 36 8 177 13 169
6z m51 -13 c0 -5 18 -8 39 -8 92 -2 242 -114 296 -223 27 -54 54 -175 55 -243
0 -80 -57 -196 -135 -274 -90 -91 -251 -142 -420 -133 -116 6 -211 48 -301
131 -59 54 -123 154 -125 193 0 18 -1 17 -9 -1 -8 -19 -6 44 5 151 14 138 142
323 251 364 50 18 161 36 269 43 28 2 56 4 63 5 6 1 12 -1 12 -5z m120 -3 c8
-5 11 -10 5 -10 -5 0 -17 5 -25 10 -8 5 -10 10 -5 10 6 0 17 -5 25 -10z m-383
-6 c-3 -3 -12 -4 -19 -1 -8 3 -5 6 6 6 11 1 17 -2 13 -5z m643 -278 c0 -12 -5
-7 -19 24 -11 24 -11 24 3 6 9 -11 16 -24 16 -30z m18 -86 c0 -22 -1 -22 -8 5
-4 17 -8 39 -8 50 0 16 2 15 8 -5 4 -14 8 -36 8 -50z m-949 -300 c17 -27 58
-73 89 -101 44 -40 49 -47 23 -33 -41 23 -106 96 -132 147 -27 51 -18 46 20
-13z m751 -146 c0 -3 -28 -18 -63 -34 -70 -33 -148 -51 -216 -48 -39 1 -41 2
-11 5 84 8 197 36 239 58 52 27 51 27 51 19z m-564 -20 c18 -14 18 -14 -6 -3
-31 14 -36 19 -24 19 6 0 19 -7 30 -16z m457 -76 c9 -31 2 -33 -11 -3 -6 14
-8 25 -3 25 5 0 11 -10 14 -22z m326 -898 c0 -10 -3 -8 -9 5 -12 27 -12 43 0
25 5 -8 9 -22 9 -30z"/>
<path d="M3730 5373 c0 -5 14 -68 32 -140 l32 -133 -33 -136 c-18 -74 -32
-137 -29 -139 2 -2 25 8 52 23 l49 27 34 110 c37 121 38 103 -13 271 -23 77
-26 81 -69 102 -50 24 -55 25 -55 15z m88 -48 c2 -2 62 -206 62 -212 0 -2 -15
-3 -34 -3 -24 0 -36 5 -40 18 -16 52 -56 209 -56 220 0 9 8 8 33 -4 17 -9 33
-18 35 -19z"/>
<path d="M3900 5373 c0 -5 20 -67 43 -138 l44 -130 -44 -130 c-23 -71 -43
-135 -43 -142 0 -8 81 47 180 122 99 74 184 135 190 135 25 0 -2 23 -172 150
-189 141 -198 147 -198 133z m182 -141 c76 -57 140 -108 143 -113 4 -5 -40 -9
-109 -9 l-114 0 -40 120 c-23 66 -35 117 -29 113 7 -3 74 -53 149 -111z"/>
<path d="M2155 5446 c-71 -23 -156 -67 -149 -78 4 -7 2 -8 -4 -4 -18 11 -99
-52 -133 -103 -52 -79 -74 -169 -74 -306 0 -115 1 -123 32 -185 45 -92 195
-238 231 -225 7 2 25 0 40 -6 15 -6 47 -17 72 -24 25 -7 36 -13 25 -14 -11 0
-45 8 -75 19 -64 22 -80 19 -24 -5 121 -52 294 -42 430 25 44 21 100 57 125
78 53 47 132 184 149 261 23 97 -9 257 -68 346 -75 113 -165 189 -226 191 -22
0 -77 11 -120 23 -88 23 -171 26 -231 7z m-35 -41 c-107 -39 -118 -41 -75 -18
43 23 127 52 150 52 11 0 -23 -16 -75 -34z m320 6 c36 -11 92 -36 124 -56 78
-47 82 -39 6 10 -58 37 -76 59 -28 34 36 -19 100 -71 94 -77 -3 -2 17 -29 44
-59 83 -91 95 -125 95 -285 0 -75 -3 -134 -7 -132 -4 3 -8 -3 -8 -13 -1 -63
-135 -226 -228 -276 -82 -45 -173 -61 -267 -47 -102 15 -185 43 -257 86 -73
44 -107 85 -155 180 l-38 78 0 125 c1 107 4 135 23 182 51 127 101 167 297
236 137 49 188 51 305 14z m357 -483 c-2 -13 -4 -3 -4 22 0 25 2 35 4 23 2
-13 2 -33 0 -45z m-10 -50 c-3 -8 -6 -5 -6 6 -1 11 2 17 5 13 3 -3 4 -12 1
-19z m-519 -385 c-10 -2 -26 -2 -35 0 -10 3 -2 5 17 5 19 0 27 -2 18 -5z"/>
<path d="M2080 5162 l0 -48 60 -34 c33 -19 60 -37 60 -41 0 -4 -25 -22 -55
-39 -30 -17 -55 -37 -55 -44 0 -7 21 -24 48 -39 49 -27 52 -27 111 10 15 10
20 18 12 22 -6 4 47 41 124 85 l135 79 0 48 c0 28 -5 49 -11 49 -6 0 -52 -25
-103 -55 -50 -30 -98 -55 -104 -55 -7 0 -55 25 -107 55 -51 30 -98 55 -104 55
-6 0 -11 -20 -11 -48z"/>
<path d="M2368 4996 c-23 -13 -34 -26 -28 -32 5 -5 -43 -39 -123 -85 l-132
-77 -3 -52 c-4 -63 -10 -63 124 15 l93 55 103 -60 c56 -33 106 -60 110 -60 5
0 8 22 8 50 0 49 0 50 -52 79 -29 17 -59 34 -66 38 -10 6 4 18 47 42 34 19 61
40 61 47 0 13 -78 64 -96 64 -5 0 -26 -11 -46 -24z"/>
<path d="M9629 5356 c-114 -44 -241 -156 -285 -250 -57 -122 -59 -272 -6 -371
82 -153 175 -240 295 -277 60 -18 86 -20 191 -15 177 8 274 44 369 139 133
132 175 350 97 515 -28 62 -125 173 -150 173 -6 0 13 -23 42 -51 l53 -51 -55
47 c-30 27 -54 52 -53 56 2 5 -21 21 -49 35 -29 15 -57 33 -63 41 -15 21 -336
29 -386 9z m191 -2 c-35 -7 -183 -10 -165 -3 11 4 56 7 100 7 44 0 73 -2 65
-4z m-191 -18 c-8 -8 -79 -35 -79 -30 0 6 60 33 74 34 5 0 7 -2 5 -4z m343 -3
c2 -5 34 -23 72 -42 87 -44 175 -125 212 -195 16 -30 30 -53 32 -52 5 5 -39
95 -49 102 -5 3 -9 11 -9 17 1 17 29 -21 47 -63 20 -45 26 -92 27 -210 1 -84
-2 -102 -27 -154 -58 -125 -154 -205 -301 -252 -121 -38 -214 -42 -307 -12
-297 96 -404 356 -270 653 15 33 42 77 59 96 34 39 144 95 214 108 54 11 295
14 300 4z m-577 -190 c-48 -88 -68 -178 -63 -280 4 -104 -11 -103 -19 1 -8
102 32 251 84 308 25 28 24 22 -2 -29z"/>
<path d="M9725 5155 l-120 -54 -3 -117 c-3 -137 10 -193 64 -266 38 -54 122
-114 171 -124 78 -15 211 92 253 204 28 73 41 281 19 298 -17 14 -244 114
-255 113 -5 0 -63 -24 -129 -54z m259 -17 l118 -52 -4 -120 c-3 -104 -8 -129
-30 -177 -43 -94 -145 -179 -216 -179 -64 0 -186 111 -217 198 -10 28 -19 93
-22 162 l-6 116 114 51 c63 28 121 52 129 52 8 1 68 -22 134 -51z"/>
<path d="M9735 5125 l-100 -44 0 -108 c1 -95 4 -115 27 -166 31 -65 84 -120
146 -148 41 -20 43 -20 85 -1 59 26 114 83 146 151 23 49 26 69 26 165 l0 108
-99 44 c-54 24 -106 44 -115 44 -9 -1 -61 -21 -116 -45z m211 -9 l99 -44 3
-87 c4 -116 -15 -178 -72 -242 -48 -53 -114 -90 -142 -79 -15 6 -10 15 31 56
27 28 58 50 69 50 25 0 56 28 56 51 0 50 -69 66 -97 22 -24 -40 -115 -133
-130 -133 -34 0 -18 29 58 106 46 46 89 84 95 84 23 0 47 38 40 64 -12 47 -86
46 -94 0 -2 -10 -40 -56 -85 -101 -79 -80 -82 -82 -94 -60 -11 20 -7 27 40 75
28 28 59 52 68 52 27 0 52 36 45 64 -12 47 -87 46 -94 -1 -2 -11 -23 -40 -48
-64 l-45 -44 3 93 3 93 95 44 c52 24 96 44 96 44 1 1 46 -19 100 -43z m-132
-119 c15 -24 -17 -56 -41 -41 -24 15 -26 29 -7 48 19 19 33 17 48 -7z m120
-30 c15 -24 -17 -56 -41 -41 -24 15 -26 29 -7 48 19 19 33 17 48 -7z m-180
-25 c3 -5 -14 -28 -38 -51 -57 -55 -75 -37 -20 20 39 40 49 45 58 31z m51
-122 c-53 -53 -83 -76 -89 -70 -7 7 16 37 69 90 53 53 83 76 89 70 7 -7 -16
-37 -69 -90z m159 17 c15 -24 -17 -56 -41 -41 -24 15 -26 29 -7 48 19 19 33
17 48 -7z m-111 -108 c-31 -32 -55 -49 -63 -44 -8 5 5 24 41 61 36 36 56 51
63 44 7 -7 -6 -27 -41 -61z"/>
<path d="M715 5243 c-107 -44 -216 -115 -251 -163 -50 -69 -84 -182 -84 -282
0 -92 20 -199 45 -249 30 -58 115 -128 214 -177 l94 -47 131 0 c107 1 144 5
202 23 187 58 272 145 320 326 26 98 10 256 -36 346 -29 56 -100 131 -161 171
-79 51 -158 70 -294 74 -109 2 -126 0 -180 -22z m280 -2 c-26 -6 -21 -8 31
-14 34 -4 81 -17 105 -28 49 -24 153 -119 175 -162 9 -16 18 -26 21 -23 3 3
-7 22 -22 43 -16 21 -20 31 -9 21 22 -19 62 -84 45 -74 -16 10 -14 0 11 -47
32 -60 32 -230 0 -333 -40 -130 -104 -189 -267 -243 -140 -46 -236 -58 -324
-38 -43 10 -90 29 -117 47 -24 17 -53 33 -65 35 -29 6 -91 58 -122 102 -21 31
-56 119 -57 143 0 3 15 -25 34 -61 34 -68 107 -163 132 -173 8 -3 -10 23 -40
58 -29 35 -69 94 -87 132 -33 66 -34 73 -34 184 0 104 3 120 27 173 39 84 128
169 225 215 72 34 86 37 183 40 58 2 112 4 120 6 8 2 26 4 40 4 22 0 21 -1 -5
-7z m276 -128 c13 -16 12 -17 -3 -4 -17 13 -22 21 -14 21 2 0 10 -8 17 -17z"/>
<path d="M808 5025 c-10 -22 -8 -28 18 -52 l29 -28 -39 -3 c-21 -2 -43 1 -49
7 -15 15 -60 14 -75 -1 -21 -21 -14 -66 12 -84 22 -14 28 -14 58 0 18 8 54 16
81 18 46 3 47 2 59 -32 7 -19 12 -64 12 -100 0 -77 -25 -139 -79 -198 -31 -35
-35 -44 -25 -61 15 -28 31 -26 62 7 107 114 136 273 74 408 -25 54 -99 144
-118 144 -5 0 -14 -11 -20 -25z m-57 -85 c34 -19 18 -70 -23 -70 -15 0 -38 27
-38 44 0 6 30 36 36 36 3 0 14 -5 25 -10z"/>
<path d="M721 4927 c-14 -17 3 -41 23 -34 9 4 16 13 16 21 0 19 -26 28 -39 13z"/>
<path d="M1090 4805 c0 -23 -4 -25 -45 -25 -43 0 -45 -1 -45 -30 0 -29 2 -30
45 -30 38 0 45 -3 45 -20 0 -11 5 -20 10 -20 13 0 99 62 100 72 0 9 -90 78
-101 78 -5 0 -9 -11 -9 -25z"/>
<path d="M622 4798 c-7 -7 -12 -24 -12 -40 0 -33 40 -65 67 -52 10 5 65 11
123 14 l105 5 3 28 3 27 -99 0 c-76 0 -102 4 -112 15 -15 18 -61 20 -78 3z
m59 -8 c34 -19 18 -70 -23 -70 -15 0 -38 27 -38 44 0 6 30 36 36 36 3 0 14 -5
25 -10z"/>
<path d="M651 4767 c-14 -17 3 -41 23 -34 9 4 16 13 16 21 0 19 -26 28 -39 13z"/>
<path d="M692 4648 c-39 -39 13 -113 64 -89 14 6 40 11 57 11 26 0 37 6 50 30
l18 30 -49 0 c-32 0 -54 5 -62 15 -15 18 -61 20 -78 3z m59 -8 c34 -19 18 -70
-23 -70 -15 0 -38 27 -38 44 0 6 30 36 36 36 3 0 14 -5 25 -10z"/>
<path d="M721 4617 c-14 -17 3 -41 23 -34 9 4 16 13 16 21 0 19 -26 28 -39 13z"/>
<path d="M7870 4707 c0 -4 33 -74 74 -155 41 -81 121 -246 179 -367 217 -456
297 -618 303 -613 3 3 -27 70 -66 148 -39 78 -69 144 -66 147 3 3 37 -59 76
-137 39 -78 73 -140 76 -138 2 3 -54 117 -124 254 -71 137 -198 384 -281 549
-139 274 -171 332 -171 312z m419 -832 c0 -5 -15 19 -34 55 -19 36 -34 70 -34
75 0 6 15 -19 34 -55 19 -36 34 -69 34 -75z"/>
<path d="M2720 4637 c0 -3 34 -34 75 -68 42 -34 73 -64 71 -67 -3 -2 -37 23
-76 57 -69 60 -96 77 -69 45 8 -9 188 -162 400 -340 213 -177 540 -458 727
-623 188 -166 345 -301 349 -301 4 1 -12 19 -37 40 -25 22 -40 40 -34 40 6 0
17 -7 24 -15 7 -9 27 -25 44 -36 62 -41 -73 77 -400 351 -182 152 -494 420
-693 596 -338 297 -381 334 -381 321z m245 -218 c11 -13 -6 -1 -37 25 -32 27
-58 51 -58 53 0 7 73 -53 95 -78z m130 -112 c6 -6 -3 -1 -20 10 -16 12 -43 36
-60 54 -22 25 -17 22 20 -10 28 -24 55 -49 60 -54z m994 -856 c31 -29 32 -30
6 -12 -16 11 -66 54 -110 96 l-80 77 74 -64 c41 -35 91 -78 110 -97z"/>
<path d="M1314 4444 c3 -18 1056 -1074 1071 -1074 5 0 -181 192 -415 427 -234
236 -353 358 -265 273 88 -85 282 -276 432 -425 150 -148 275 -267 278 -263 7
7 -1084 1078 -1099 1078 -2 0 -3 -7 -2 -16z m229 -224 c-2 -2 -54 47 -116 110
l-112 114 116 -110 c64 -60 114 -111 112 -114z"/>
<path d="M9428 4258 c-138 -190 -508 -716 -508 -722 0 -2 8 -2 18 1 23 6 669
869 659 880 -3 2 -16 -11 -29 -29 -251 -340 -401 -538 -405 -534 -3 3 30 54
72 113 255 354 326 455 322 459 -2 2 -60 -74 -129 -168z m-268 -415 c-1 -5
-12 -21 -27 -38 -26 -30 -26 -30 11 33 8 13 16 16 16 5z"/>
<path d="M8487 3573 c-9 -2 -15 -9 -11 -14 3 -6 -14 -17 -38 -27 -23 -9 -82
-35 -130 -59 -99 -48 -150 -102 -190 -200 -20 -51 -23 -75 -23 -198 0 -134 1
-142 28 -195 28 -54 122 -160 141 -160 6 0 -15 26 -46 58 -55 55 -100 133
-113 197 -3 17 4 5 18 -26 26 -62 50 -99 111 -173 23 -28 41 -54 41 -60 0 -5
5 -11 12 -13 22 -8 7 25 -31 67 -91 101 -156 240 -156 334 0 51 25 157 46 199
52 102 121 150 299 207 123 39 186 46 267 30 123 -24 221 -82 277 -164 125
-184 115 -421 -26 -577 -79 -87 -174 -136 -308 -158 -80 -13 -189 2 -271 38
-25 12 -50 18 -55 15 -5 -3 -8 0 -7 7 2 6 -2 13 -8 16 -6 2 -11 -4 -11 -12 0
-19 50 -46 126 -69 82 -24 245 -22 323 5 178 59 332 241 345 403 11 129 -49
297 -143 404 -80 91 -193 133 -354 131 -52 -1 -103 -3 -113 -6z m61 -10 c-16
-2 -28 -9 -28 -14 0 -5 -8 -9 -17 -9 -15 0 -14 2 3 15 10 8 30 14 44 13 24 -1
24 -1 -2 -5z m119 1 c-3 -3 -12 -4 -19 -1 -8 3 -5 6 6 6 11 1 17 -2 13 -5z
m70 -10 c-3 -3 -12 -4 -19 -1 -8 3 -5 6 6 6 11 1 17 -2 13 -5z m85 -23 c24
-10 52 -26 63 -35 11 -9 -4 -4 -34 10 -30 15 -66 30 -80 34 -14 5 -18 9 -9 9
9 1 36 -8 60 -18z"/>
<path d="M2684 3531 c-28 -10 -71 -30 -96 -45 -65 -38 -170 -152 -204 -221
-27 -57 -29 -67 -29 -185 0 -106 4 -133 23 -182 34 -84 80 -137 174 -200 157
-105 258 -127 426 -89 131 29 211 70 281 147 56 61 58 63 77 45 19 -18 846
-611 1424 -1021 173 -123 386 -277 473 -342 86 -65 157 -115 157 -110 0 14
-51 56 -180 147 -69 49 -270 196 -447 327 -177 131 -325 238 -328 238 -4 0 -3
-5 1 -12 4 -7 3 -8 -5 -4 -6 4 -9 11 -6 16 5 8 -97 90 -112 90 -4 0 1 -7 11
-15 11 -8 15 -15 9 -15 -12 0 -41 31 -33 36 3 2 -208 161 -468 354 -261 194
-476 349 -479 347 -4 -5 112 -93 395 -301 51 -38 91 -70 88 -73 -2 -3 -119 78
-259 178 l-255 183 24 48 c28 54 54 156 54 208 -1 73 -49 173 -137 286 -24 29
-43 58 -43 62 0 10 -16 19 -126 66 -45 19 -108 39 -140 45 -89 17 -211 13
-270 -8z m269 -17 c98 -24 149 -45 199 -81 65 -47 147 -139 173 -195 12 -26
24 -46 26 -44 9 10 9 -174 -1 -224 -16 -87 -67 -177 -125 -223 -27 -22 -64
-47 -82 -55 -18 -8 -29 -20 -26 -25 3 -6 1 -7 -6 -3 -6 4 -41 -5 -78 -19 -89
-36 -195 -38 -308 -5 -94 26 -142 49 -188 90 -19 16 -37 27 -39 24 -7 -7 -71
72 -92 113 -25 51 -46 152 -44 223 l1 65 8 -85 c4 -47 12 -99 17 -115 12 -39
59 -132 84 -168 33 -47 31 -23 -2 26 -111 165 -114 382 -6 504 71 81 183 170
232 184 38 12 42 15 23 19 -12 3 22 7 75 8 63 1 120 -4 159 -14z m-416 -105
c-89 -83 -128 -137 -153 -212 -14 -39 -14 -40 -9 -7 9 57 50 131 108 191 45
48 120 107 137 108 3 0 -35 -36 -83 -80z m840 -381 c-2 -24 -4 -5 -4 42 0 47
2 66 4 43 2 -24 2 -62 0 -85z m-222 -348 c-3 -5 -12 -10 -18 -10 -7 0 -6 4 3
10 19 12 23 12 15 0z m-388 -66 c-3 -3 -12 -4 -19 -1 -8 3 -5 6 6 6 11 1 17
-2 13 -5z m1214 -250 c71 -53 129 -98 129 -101 0 -3 -15 6 -32 19 -18 13 -79
57 -135 97 -57 40 -103 75 -103 77 0 11 20 -3 141 -92z m285 -210 c16 -14 2
-7 -32 16 -33 23 -74 53 -90 66 -16 14 -2 7 32 -16 33 -23 74 -53 90 -66z
m144 -111 c0 -7 -58 36 -66 49 -4 7 9 -1 29 -16 20 -16 37 -30 37 -33z m61
-40 c13 -17 13 -17 -6 -3 -11 8 -22 16 -24 17 -2 2 0 3 6 3 6 0 17 -8 24 -17z"/>
<path d="M2850 3301 l0 -80 75 -42 75 -43 0 -90 0 -91 67 -38 c37 -21 70 -34
75 -29 5 5 7 80 6 167 l-3 159 -140 83 c-77 45 -143 82 -147 82 -5 1 -8 -35
-8 -78z"/>
<path d="M2710 3180 l0 -69 60 -33 60 -33 0 -71 c0 -55 4 -74 18 -86 23 -20
91 -58 103 -58 6 0 8 55 7 142 l-3 142 -115 67 c-63 37 -118 68 -122 68 -5 1
-8 -30 -8 -69z m167 -39 l63 -36 0 -127 0 -127 -45 26 -45 25 0 73 0 74 -65
38 -65 38 0 53 0 54 48 -28 c26 -15 75 -43 109 -63z"/>
<path d="M2600 3071 l0 -60 50 -27 50 -27 0 -59 0 -58 47 -30 c27 -16 51 -26
56 -21 4 4 6 57 5 117 l-3 109 -95 57 c-52 32 -98 57 -102 58 -5 0 -8 -27 -8
-59z m123 -23 l67 -39 0 -99 c0 -55 -3 -100 -6 -100 -4 0 -22 9 -40 21 -32 20
-34 23 -34 79 l0 59 -50 27 c-48 26 -50 29 -50 71 0 50 -9 52 113 -19z"/>
<path d="M4595 3539 c-81 -8 -168 -55 -244 -133 -102 -104 -153 -183 -176
-272 -13 -54 -13 -66 4 -149 24 -117 59 -185 135 -261 184 -184 469 -213 685
-70 38 26 82 61 96 78 59 69 105 192 105 279 0 76 -28 215 -56 273 -32 69
-111 144 -195 186 -35 18 -66 36 -69 40 -3 3 -45 12 -95 19 -125 17 -123 17
-190 10z m133 -20 c53 -5 122 -19 152 -30 59 -22 135 -63 145 -79 3 -6 -20 5
-52 24 -60 35 -133 60 -133 46 0 -4 21 -13 46 -20 58 -17 149 -76 193 -125
105 -121 131 -347 55 -488 -8 -15 -12 -32 -8 -39 4 -6 3 -8 -4 -4 -6 3 -25
-12 -43 -34 -35 -44 -111 -104 -174 -139 -37 -20 -33 -22 13 -5 13 5 14 4 6
-5 -6 -7 -30 -14 -53 -16 -23 -2 -58 -9 -78 -16 -75 -24 -256 22 -360 94 -78
53 -160 148 -208 239 -36 68 -37 73 -33 152 8 153 89 262 278 379 51 31 88 57
80 57 -7 0 -11 2 -9 5 3 2 20 0 38 -5 27 -7 32 -7 27 5 -7 18 -3 18 122 4z
m-203 -17 c-6 -5 -41 -28 -80 -51 l-70 -42 38 35 c21 18 52 41 70 50 35 17 57
21 42 8z m551 -134 l29 -33 -32 29 c-31 28 -38 36 -30 36 2 0 16 -15 33 -32z
m-738 -620 c71 -72 161 -127 253 -153 l54 -15 -45 5 c-25 3 -83 24 -130 47
-102 50 -189 132 -238 224 -43 82 -41 93 4 18 19 -32 65 -89 102 -126z m803
79 c-10 -9 -11 -8 -5 6 3 10 9 15 12 12 3 -3 0 -11 -7 -18z m-41 -67 c-23 -32
-88 -88 -135 -114 -29 -17 -30 -17 -5 0 14 10 54 47 90 81 36 34 66 63 68 63
2 0 -6 -13 -18 -30z"/>
<path d="M4510 3195 l-155 -155 150 -150 c82 -82 154 -150 160 -150 6 0 44 34
85 75 l74 74 -24 26 -24 25 -56 -55 -55 -55 -105 105 -105 105 107 107 108
108 55 -55 c53 -53 55 -53 75 -35 11 10 20 23 20 29 0 10 -140 156 -150 156
-3 0 -75 -70 -160 -155z m227 73 c35 -34 63 -68 63 -75 0 -31 -26 -21 -76 28
l-54 54 -118 -118 -117 -117 110 -110 c60 -60 114 -110 120 -110 5 0 32 23 61
51 45 45 52 48 64 34 12 -14 5 -25 -56 -86 l-69 -69 -145 145 -145 145 145
145 c80 80 147 145 150 145 2 0 33 -28 67 -62z"/>
<path d="M4670 3037 c0 -64 1 -117 3 -117 1 0 28 26 60 58 l57 58 -60 59 -60
59 0 -117z m100 -2 c0 0 -20 -21 -45 -45 l-45 -44 0 89 0 89 45 -44 c25 -24
45 -45 45 -45z"/>
<path d="M4860 3037 c0 -64 1 -117 3 -117 1 0 28 26 60 58 l57 58 -60 59 -60
59 0 -117z"/>
<path d="M8493 3363 c-65 -39 -74 -52 -47 -74 13 -10 20 -10 44 4 15 9 31 17
34 17 3 0 6 -24 6 -54 0 -52 1 -54 30 -58 17 -3 32 -2 35 0 3 3 5 29 5 59 0
29 2 53 4 53 9 0 106 -63 106 -69 0 -4 -18 -17 -40 -31 -44 -27 -47 -35 -25
-64 14 -19 16 -18 54 7 23 15 43 27 46 27 3 0 5 -27 5 -60 l0 -60 30 0 30 0 0
99 0 99 -120 71 c-67 39 -124 71 -128 71 -4 0 -35 -17 -69 -37z"/>
<path d="M8297 3292 c-26 -28 -22 -78 7 -98 14 -8 36 -14 49 -12 14 1 42 -9
66 -25 24 -16 44 -27 46 -25 5 6 25 47 25 51 0 2 -18 17 -40 32 -22 15 -40 34
-40 41 0 45 -82 71 -113 36z"/>
<path d="M8517 3142 c-25 -27 -22 -78 5 -96 46 -33 108 -4 108 49 0 55 -77 87
-113 47z"/>
<path d="M8310 3041 l0 -99 120 -71 c67 -39 124 -71 127 -71 10 0 133 74 133
80 0 3 -7 14 -15 25 -15 18 -16 18 -44 2 -16 -9 -32 -17 -35 -17 -3 0 -6 26
-6 59 l0 59 -32 -3 c-33 -2 -33 -3 -36 -59 -2 -31 -5 -56 -7 -56 -8 0 -105 63
-105 69 0 4 18 17 40 31 44 27 47 35 25 64 -14 19 -16 18 -54 -7 -23 -15 -43
-27 -46 -27 -3 0 -5 27 -5 60 l0 60 -30 0 -30 0 0 -99z"/>
<path d="M8631 3048 c-12 -20 -11 -24 20 -50 19 -15 37 -28 42 -28 4 0 7 -7 7
-15 0 -22 45 -65 68 -65 34 0 65 34 65 70 0 39 -23 60 -68 60 -17 0 -47 11
-67 25 -45 30 -50 31 -67 3z"/>
<path d="M7944 2608 c-173 -132 -571 -427 -1216 -901 -97 -72 -175 -134 -173
-137 3 -4 -3 -14 -13 -21 -15 -13 -16 -12 -3 4 7 9 9 17 3 17 -12 0 -34 -25
-27 -32 3 -3 -3 -11 -12 -19 -16 -13 -17 -12 -4 4 8 10 9 17 3 17 -6 0 -14 -6
-19 -12 -9 -15 -13 -38 -7 -38 2 0 354 262 782 583 427 320 800 599 828 620
28 20 57 44 64 52 33 39 -22 3 -206 -137z m-1264 -952 c0 -2 -8 -10 -17 -17
-16 -13 -17 -12 -4 4 13 16 21 21 21 13z m-40 -30 c0 -2 -8 -10 -17 -17 -16
-13 -17 -12 -4 4 13 16 21 21 21 13z m-40 -30 c0 -2 -8 -10 -17 -17 -16 -13
-17 -12 -4 4 13 16 21 21 21 13z"/>
<path d="M5023 2593 c36 -58 39 -63 34 -63 -2 0 -17 18 -31 41 -15 22 -30 38
-33 36 -3 -3 64 -108 149 -234 85 -125 185 -279 222 -340 39 -64 73 -110 79
-106 6 3 7 1 3 -6 -7 -11 183 -336 192 -327 2 3 -5 22 -17 42 -30 51 -20 53
13 3 15 -22 30 -38 33 -35 3 3 -79 132 -183 286 -104 154 -235 356 -291 448
-56 92 -107 167 -112 167 -5 0 -13 4 -18 9 -5 5 -3 6 5 2 6 -4 12 -4 12 -1 0
13 -65 115 -72 115 -5 0 2 -17 15 -37z m117 -183 c6 -11 8 -20 6 -20 -3 0 -10
9 -16 20 -6 11 -8 20 -6 20 3 0 10 -9 16 -20z m350 -550 c6 -11 8 -20 6 -20
-3 0 -10 9 -16 20 -6 11 -8 20 -6 20 3 0 10 -9 16 -20z m64 -101 c26 -39 45
-73 43 -75 -3 -3 -19 19 -37 48 -18 29 -39 63 -48 76 -8 12 -12 22 -10 22 3 0
26 -32 52 -71z"/>
<path d="M5725 1543 c-11 -2 -58 -23 -105 -46 -111 -55 -170 -115 -224 -227
-62 -130 -62 -234 0 -375 38 -88 160 -232 180 -212 2 2 -7 12 -22 21 -14 10
-23 20 -20 23 3 3 -17 30 -44 59 -98 108 -136 297 -90 447 24 76 71 125 202
211 118 77 165 90 295 83 96 -4 111 -8 174 -41 74 -39 84 -42 73 -24 -4 7 -3
8 5 4 6 -4 9 -11 6 -16 -3 -5 4 -14 16 -21 12 -6 42 -30 67 -53 25 -22 42 -35
37 -27 -5 10 -4 12 4 7 6 -4 9 -11 6 -16 -3 -5 5 -25 19 -44 38 -57 60 -163
54 -268 -7 -121 -50 -209 -143 -297 -87 -81 -162 -106 -315 -105 -117 0 -201
21 -299 74 -57 31 -80 35 -36 6 14 -9 23 -21 20 -27 -7 -11 79 -51 145 -67 87
-21 191 -25 266 -9 92 20 204 76 256 130 48 49 102 157 119 235 41 197 -57
433 -209 503 -27 13 -48 28 -46 34 9 23 -316 55 -391 38z m-130 -89 c-33 -20
-78 -50 -100 -67 l-40 -30 35 36 c33 34 133 96 155 97 6 0 -17 -16 -50 -36z
m648 -53 c10 -12 9 -12 -8 -3 -11 6 -31 21 -45 33 l-25 21 33 -19 c19 -10 39
-24 45 -32z m-866 -403 c-3 -8 -6 -5 -6 6 -1 11 2 17 5 13 3 -3 4 -12 1 -19z
m263 -333 c14 -8 21 -14 15 -14 -5 0 -21 6 -35 14 -14 8 -20 14 -15 14 6 0 21
-6 35 -14z m105 -37 c13 -5 9 -6 -15 -2 -19 4 -42 10 -50 15 -18 11 34 1 65
-13z"/>
<path d="M6443 1498 c-11 -19 -13 -38 -3 -38 10 0 24 19 26 38 1 6 -2 12 -6
12 -5 0 -12 -6 -17 -12z"/>
<path d="M6403 1468 c-11 -19 -13 -38 -3 -38 10 0 24 19 26 38 1 6 -2 12 -6
12 -5 0 -12 -6 -17 -12z"/>
<path d="M6369 1445 c-1 -3 -2 -8 -3 -12 -1 -5 -5 -14 -9 -20 -5 -7 -4 -13 2
-13 11 0 24 18 27 38 2 11 -14 18 -17 7z"/>
<path d="M6333 1418 c-4 -7 -8 -16 -8 -20 0 -3 -4 -10 -9 -15 -5 -5 -6 -3 -2
5 8 14 -10 17 -18 3 -9 -14 25 -23 41 -10 7 7 11 14 8 17 -3 3 0 11 6 19 8 9
8 13 1 13 -6 0 -14 -6 -19 -12z"/>
<path d="M5662 1318 c-20 -20 -14 -66 11 -82 50 -33 105 21 72 70 -17 26 -62
33 -83 12z"/>
<path d="M5790 1276 c0 -33 2 -36 28 -36 34 0 58 -25 98 -98 31 -60 85 -112
114 -112 11 0 23 0 27 0 3 0 7 14 7 31 1 23 -5 34 -19 39 -27 10 -48 36 -78
95 -36 72 -76 106 -131 112 l-46 6 0 -37z"/>
<path d="M6116 1101 c-26 -29 -18 -81 16 -100 59 -33 120 28 87 87 -19 35 -76
43 -103 13z"/>
<path d="M5662 1098 c-20 -20 -14 -66 11 -82 50 -33 105 21 72 70 -17 26 -62
33 -83 12z"/>
<path d="M5790 1055 l0 -35 55 0 c45 0 56 4 65 21 18 33 -4 49 -66 49 l-54 0
0 -35z m105 5 c0 -10 -13 -16 -42 -18 -38 -3 -43 -1 -43 18 0 19 5 21 43 18
29 -2 42 -8 42 -18z"/>
<path d="M5910 961 c-32 -64 -61 -91 -97 -91 -20 0 -23 -5 -23 -35 0 -31 3
-35 25 -35 34 0 86 23 107 46 9 11 32 47 52 82 l35 62 -29 15 c-16 8 -31 15
-34 15 -3 0 -19 -27 -36 -59z m70 22 c0 -3 -14 -32 -32 -66 -33 -62 -75 -97
-116 -97 -29 0 -27 33 3 38 29 6 54 31 87 89 20 35 34 50 44 46 8 -3 14 -7 14
-10z"/>
<path d="M5662 878 c-20 -20 -14 -66 11 -82 50 -33 105 21 72 70 -17 26 -62
33 -83 12z"/>
</g>
</svg>
